<?xml version="1.0" encoding="utf-8"?>
<!-- Generator: Adobe Illustrator 21.0.0, SVG Export Plug-In . SVG Version: 6.00 Build 0)  -->
<svg version="1.1" xmlns="http://www.w3.org/2000/svg" xmlns:xlink="http://www.w3.org/1999/xlink" x="0px" y="0px"
	 viewBox="0 0 2500 2500" style="enable-background:new 0 0 2500 2500;" xml:space="preserve">
<style type="text/css">
	.st0{fill:#0098FF;}
</style>
<g id="Layer_2">
</g>
<g id="Layer_1">
	<g>
		<path class="st0" d="M279.6,2327.4c0,11.6,10,15.8,20.8,15.8c23.2,0,32.8-14.5,32.8-24.3v-18.1c-6.8,5-20.1,5.2-31.9,7.3
			C289.6,2310.1,279.6,2314.3,279.6,2327.4z"/>
		<path class="st0" d="M1803.8,1993.3c-18.5,0-33.4,14.6-33.4,40.7c0,26,14.9,40.5,33.4,40.5c18.5,0,33.4-14.5,33.4-40.5
			C1837.2,2007.9,1822.3,1993.3,1803.8,1993.3z"/>
		<path class="st0" d="M752.3,2327.4c0,11.6,10,15.8,20.7,15.8c23.3,0,32.8-14.5,32.8-24.3v-18.1c-6.8,5-20.1,5.2-31.9,7.3
			C762.3,2310.1,752.3,2314.3,752.3,2327.4z"/>
		<path class="st0" d="M1505.4,2058.7c0,11.6,9.9,15.8,20.7,15.8c23.3,0,32.8-14.5,32.8-24.3v0v-18.1c-6.9,4.9-20.1,5.2-32,7.2
			C1515.3,2041.5,1505.4,2045.6,1505.4,2058.7z"/>
		<path class="st0" d="M590.9,1993.3c-18.5,0-29.5,13.9-30.7,30.3h61.6C621,2006.8,608.3,1993.3,590.9,1993.3z"/>
		<path class="st0" d="M1184.1,2034c0-26.1-14.9-40.7-33.4-40.7c-18.5,0-33.4,14.6-33.4,40.7c0,26,15,40.5,33.4,40.5
			C1169.2,2074.5,1184.1,2060,1184.1,2034z"/>
		<path class="st0" d="M2123.7,2058.7c0,11.6,9.9,15.8,20.7,15.8c23.2,0,32.8-14.5,32.8-24.3v0v-18.1c-6.9,4.9-20.1,5.2-32,7.2
			C2133.7,2041.5,2123.7,2045.6,2123.7,2058.7z"/>
		<path class="st0" d="M2380.2,39.7H123.7c-44,0-80,36-80,80v2256.5c0,44,36,80,80,80h2256.5c44,0,80-36,80-80V119.7
			C2460.2,75.7,2424.2,39.7,2380.2,39.7z M187.9,2359.8c-33.2,0-61.2-16.2-61.2-52.3h18.7c0,24.9,20.8,35.7,43.2,35.7
			c17.8,0,37.6-5.6,37.6-27c0-20.3-23.7-23.9-47.3-29.1c-23.7-5.2-47.5-12-47.5-39.2c0-30.1,26.8-43.4,53.7-43.4
			c30.3,0,53.3,14.3,54.6,46.9h0v0c0,0,0,0,0,0l0,0v0c0,0,0,0,0,0h-18.7c-2.3-21.1-16.4-30.3-36.7-30.3c-16.6,0-33.2,6-33.2,25.3
			c0,18.3,23.7,21,47.5,26.4c23.7,5.4,47.3,13.7,47.3,42.7C245.8,2347.1,214.9,2359.8,187.9,2359.8z M253.5,2034
			c0,37.4-21.4,57.1-58.3,57.1c-38.2,0-60.8-17.7-60.8-57.1v-94.6h19.7v94.6c0,26.1,14.9,40.5,41.1,40.5c24.9,0,38.6-14.3,38.6-40.5
			v-94.6h19.7V2034z M361.8,2355.8c-3.1,1.9-7,3-12.7,3c-9.1,0-14.9-5-14.9-16.6c-9.8,11.4-22.8,16.6-37.8,16.6
			c-19.5,0-35.5-8.8-35.5-30.1c0-24.3,18-29.5,36.3-33c19.5-3.7,36.1-2.5,36.1-15.8c0-15.4-12.7-17.9-23.9-17.9
			c-14.9,0-25.9,4.6-26.8,20.3h-17.6c1-26.6,21.6-35.9,45.4-35.9c19.3,0,40.3,4.4,40.3,29.5v55.2c0,8.3,0,12,5.6,12
			c1.8,0,3.7-0.4,5.4-1V2355.8z M370.9,2087.5h-17.6v-72.6c0-13.1-8.3-21.6-21.8-21.6c-21.4,0-31.8,14.3-31.8,33.6v60.6h-17.6h0h0
			v-107.3h16.6v17h0.4c7.5-13.3,19.5-19.5,34.9-19.5c28.2,0,36.9,16.2,36.9,39.2V2087.5z M467,2356.2h-17.6v-72.6
			c0-13.1-8.3-21.6-21.8-21.6c-21.4,0-31.8,14.3-31.8,33.6v60.6h-17.6h0v-107.3h16.6v17h0.4c7.5-13.3,19.5-19.5,34.9-19.5
			c28.2,0,36.9,16.2,36.9,39.2V2356.2z M416.2,1980.3v107.3h-17.6v-107.3H416.2z M398.5,1961v-21.6h17.6v21.6H398.5z M491.9,2087.5
			H473l-39.8-107.3h19.7l30.1,89.5h0.4l29.3-89.5h18.5L491.9,2087.5z M593.6,2074.5c14.5,0,24.7-7.1,27.8-21v0h17.4
			c-4.8,23.7-21.8,36.6-45.9,36.6c-34.2,0-50.4-23.7-51.5-56.5c0-32.2,21.2-55.8,50.4-55.8c38,0,49.6,35.4,48.6,61.4h-80.3
			C559.6,2057.9,570.1,2074.5,593.6,2074.5z M651.5,2224.7h-77.6v47.1h68.1v16.6h-68.1v67.8h-19.7V2208h97.3V2224.7z M675.1,2002.9
			c8.5-17.2,20.3-25.7,39.4-25.1v18.6c-28.4,0-38.8,16.2-38.8,43.4v47.7h-17.6v-107.2h16.6v22.6H675.1z M726.2,2265.1
			c-28.4,0-38.8,16.2-38.8,43.4v47.7h-17.6v0v-107.3h16.6v22.6h0.4c8.5-17.2,20.3-25.7,39.4-25.1V2265.1z M721,2053.7L721,2053.7
			l17.6,0c0.6,15.7,14.3,20.7,28.8,20.7c11,0,25.9-2.5,25.9-16c0-13.7-17.4-16-35-19.9c-17.4-3.9-35.1-9.7-35.1-30.3
			c0-21.6,21.4-30.5,40-30.5c23.7,0,42.5,7.5,44,33.6h-17.6c-1.2-13.7-13.3-18-24.9-18c-10.6,0-22.8,2.9-22.8,13.7
			c0,12.7,18.7,14.7,35.1,18.7c17.6,3.9,35,9.8,35,30.5c0,25.5-23.9,33.9-45.7,33.9C742.4,2090.1,722,2080.3,721,2053.7z
			 M834.5,2355.8c-3.1,1.9-7.1,3-12.7,3c-9.1,0-14.9-5-14.9-16.6c-9.7,11.4-22.8,16.6-37.8,16.6c-19.5,0-35.5-8.8-35.5-30.1
			c0-24.3,18.1-29.5,36.3-33c19.5-3.7,36.1-2.5,36.1-15.8c0-15.4-12.7-17.9-23.9-17.9c-14.9,0-25.9,4.6-26.8,20.3h-17.6
			c1-26.6,21.6-35.9,45.4-35.9c19.3,0,40.3,4.4,40.3,29.5v55.2c0,8.3,0,12,5.6,12c1.8,0,3.7-0.4,5.4-1v0h0c0,0,0,0,0,0V2355.8z
			 M850.3,2087.5h-17.6v-107.3h17.6V2087.5z M850.3,1961h-17.6v-21.6h17.6V1961z M939.7,2356.2h-17.6v-72.6
			c0-13.1-8.3-21.6-21.8-21.6c-21.4,0-31.7,14.3-31.7,33.6v60.6h-17.6h0v-107.3h16.6v17h0.4c7.5-13.3,19.5-19.5,34.9-19.5
			c28.2,0,36.9,16.2,36.9,39.2V2356.2z M923.5,1980.3v15.6h-21.4v66.6c0,8.1,2.3,9.6,13.3,9.6h8.1v15.5H910
			c-18.3,0-25.5-3.7-25.5-23.4v-68.2h-18.3v-15.6h18.3v-32.2h17.6v32.1H923.5z M941.8,2128.7v-16.2c3.3,1,6.9,2.5,10.4,2.5
			c7.3,0,11.2-3.5,14.5-9.8l7.3-18.3l-42.5-106.7h19.9l31.3,87.8h0.4l30.1-87.8h18.7l0,0l-46.7,121.6c-8.1,21-15.3,28.6-31.1,28.6
			C949.9,2130.5,945.7,2130.1,941.8,2128.7z M1010.6,2358.7c-32.8,0-50.2-22.9-50.2-54.8c0-32.2,16.6-57.5,50.6-57.5
			c24.3,0,43.8,11.4,46.3,36.9h-18.3c-2.7-13.5-12-21.4-26.6-21.4c-25.5,0-33.4,20.1-33.4,41.9c0,19.7,8.9,39.2,31.3,39.2
			c17,0,27.2-10,29.5-26.1h18.1C1054,2343.1,1037.7,2358.7,1010.6,2358.7z M1096.4,2356.2h-17.6v-107.3h17.6V2356.2z M1096.4,2229.6
			h-17.6V2208h17.6V2229.6z M1098.7,2034c0-31.5,18-56.2,52.1-56.2c34,0,52.1,24.7,52.1,56.2c0,31.3-18,56.1-52.1,56.1
			C1116.7,2090.1,1098.7,2065.4,1098.7,2034z M1162.4,2358.7c-24.1,0-44.4-9.8-45.5-36.3h17.7c0.6,15.7,14.3,20.7,28.8,20.7
			c11,0,26-2.5,26-16c0-13.7-17.4-16-35.1-19.9c-17.4-3.9-35.1-9.7-35.1-30.3c0-21.6,21.4-30.5,40.1-30.5c23.6,0,42.5,7.5,44,33.6
			h-17.6c-1.2-13.7-13.3-18-24.9-18c-10.6,0-22.8,2.9-22.8,13.7c0,12.7,18.7,14.7,35.1,18.7c17.6,3.9,35.1,9.8,35.1,30.5
			C1208,2350.4,1184.1,2358.7,1162.4,2358.7z M1269.2,1980.3v15.6h-20.7v91.7h-17.6l0,0v-91.7h-18v-15.6h18v-16
			c0-17.4,10.4-26.6,29.7-26.6c3.9,0.1,7.7,0.6,11.4,1.7v15.4c-3.1-1.1-6.8-1.5-9.9-1.5c-8.5,0-13.5,2.7-13.5,12v14.9H1269.2z
			 M1271.9,2358.7c-32.8,0-50.2-22.9-50.2-54.8c0-32.2,16.6-57.5,50.6-57.5c24.3,0,43.8,11.4,46.3,36.9h-18.3
			c-2.7-13.5-12-21.4-26.6-21.4c-25.5,0-33.4,20.1-33.4,41.9c0,19.7,8.9,39.2,31.4,39.2c17,0,27.2-10,29.5-26.1h18
			C1315.3,2343.1,1298.9,2358.7,1271.9,2358.7z M1385.2,2358.7c-34,0-52.1-24.7-52.1-56.1c0-31.5,18-56.2,52.1-56.2
			c34,0,52.1,24.7,52.1,56.2C1437.3,2334,1419.2,2358.7,1385.2,2358.7z M1406.8,2091.1c-46.1,0-68.5-34.1-68.5-77.2
			c0-43,24.5-78,70.1-78c30.9,0,56.4,16.6,61,48.1h0v0h-19.7c-4.1-21-20.9-31.5-41.5-31.5c-35.3,0-50.2,29.1-50.2,60
			c0,33.8,14.9,62,50.4,62c25.9,0,40.9-18.3,42.7-42.7h19.7C1467.2,2068.7,1444.2,2091.1,1406.8,2091.1z M1587.5,2087.1
			c-3.1,1.9-7,3-12.6,3c-9.2,0-15-5-15-16.6c-9.7,11.4-22.8,16.6-37.7,16.6c-19.5,0-35.5-8.8-35.5-30.1c0-24.3,18-29.5,36.3-33
			c19.5-3.7,36.1-2.5,36.1-15.8c0-15.4-12.7-17.9-23.9-17.9c-14.9,0-25.9,4.6-26.8,20.3h-17.6c1-26.6,21.6-35.9,45.4-35.9
			c19.3,0,40.3,4.4,40.3,29.5v55.2c0,8.3,0,12,5.6,12c1.9,0,3.7-0.4,5.4-1l0,0V2087.1z M1622.6,2087.5H1605v-148.1h17.6V2087.5z
			 M1668.7,2087.5h-17.6v-107.3h17.6V2087.5z M1668.7,1961h-17.6v-21.6h17.6V1961z M1744.4,1954.8c-3.1-1.1-6.9-1.5-10-1.5
			c-8.5,0-13.5,2.7-13.5,12v14.9h20.7v15.6H1721v91.7h-17.6v-91.7h-18.1v-15.6h18.1v-16c0-17.4,10.3-26.6,29.7-26.6
			c3.9,0.1,7.7,0.6,11.4,1.7V1954.8z M1803.8,2090.1c-34,0-52.1-24.7-52.1-56.1c0-31.5,18.1-56.2,52.1-56.2
			c34,0,52.1,24.7,52.1,56.2C1855.8,2065.4,1837.8,2090.1,1803.8,2090.1z M1932.4,1996.5c-28.4,0-38.8,16.2-38.8,43.4v47.7H1876
			v-107.2h16.6v22.6h0.4c8.5-17.2,20.3-25.7,39.4-25.1V1996.5z M2038.2,2087.5h-17.6v-72.6c0-13.1-8.3-21.6-21.8-21.6
			c-21.4,0-31.7,14.3-31.7,33.6v60.6h-17.6v-107.3h16.6v17h0.4c7.5-13.3,19.5-19.5,34.9-19.5c28.2,0,36.9,16.2,36.9,39.2V2087.5z
			 M2083.5,2087.5h-17.7v-107.3h17.7V2087.5z M2083.5,1961h-17.7v-21.6h17.7V1961z M2205.9,2087.1c-3.1,1.9-7,3-12.6,3
			c-9.2,0-15-5-15-16.6c-9.7,11.4-22.8,16.6-37.7,16.6c-19.5,0-35.5-8.8-35.5-30.1c0-24.3,18-29.5,36.3-33
			c19.5-3.7,36.1-2.5,36.1-15.8c0-15.4-12.7-17.9-23.9-17.9c-14.9,0-25.9,4.6-26.8,20.3h-17.7c1.1-26.6,21.6-35.9,45.5-35.9
			c19.3,0,40.3,4.4,40.3,29.5v55.2c0,8.3,0,12,5.6,12c1.9,0,3.7-0.4,5.4-1l0,0V2087.1z M2391.9,670.3h-349.1V827h305.6v122.8h-305.6
			v299.6h-145.1v-177.6c-32.6,162.7-216.7,178.2-273,178.2c-257.4,0-301.6-148.3-301.6-235.7h141.4v0v0c1,39.3,20.6,114,149.3,114
			c69.8,0,147.4-16.7,147.4-91.4c0-55-53-69.8-127.7-87.4l-75.6-17.7c-59.7-13.9-118.4-27.6-160.7-59.8
			c-48,55.4-118.2,88.3-215.6,88.3c-151.2,0-267.4-83.6-304.6-245.5C870.6,887.6,760.9,962,589.6,962c-64.4,0-159.9-15.6-222.3-84.8
			c-38-42.9-52.6-99.4-54.6-169.6V243.4h149.2v454.3c0,97.5,56.6,140.4,124.8,140.4c100.4,0,141.4-48.7,141.4-133.6V243.4h149.2
			v233.3c38.6-164.2,159.4-247.7,306.3-247.7c207.9,0,292.1,143.2,299.8,245.7h-145.1v0c-11.6-41.6-33.8-119.9-153.8-119.9
			c-69.6,0-172.2,46.4-172.2,242.8c0,124.8,49.3,236.9,172.2,236.9c74.6,0,128.3-39.2,149.5-113c1-79,45-214.2,271.1-214.2
			c216.1,0,274.1,141.5,275.1,227.9h-141.5c-3.9-31.4-15.7-106.1-144.4-106.1c-56,0-122.8,20.6-122.8,84.5c0,55,45.2,66.8,74.7,73.7
			l171.9,42.3c82.8,20.3,159.8,52.2,179.7,141.3V547.5h494.2V670.3z"/>
		<path class="st0" d="M1385.2,2262c-18.5,0-33.4,14.5-33.4,40.7c0,26,14.9,40.5,33.4,40.5s33.4-14.5,33.4-40.5
			C1418.6,2276.5,1403.7,2262,1385.2,2262z"/>
	</g>
</g>
</svg>
